<svg xmlns="http://www.w3.org/2000/svg" width="27" height="28" viewBox="0 0 27 28">
  <g fill="none" fill-rule="evenodd">
    <path fill="#3A46DD" d="M17.86446,19.143945 C16.41816,20.366595 14.57901,20.948445 12.69576,20.794545 C8.80101,20.467845 5.89761,17.034795 6.22476,13.103595 C6.22476,12.975795 3.49866,8.541945 3.49866,8.541945 C3.49866,8.541945 0.04446,12.492495 0.04626,12.626145 C-0.56169,19.923795 4.88016,26.358795 12.17736,26.970795 C12.55671,27.002745 12.93426,27.018495 13.31001,27.018495 C16.44291,27.018495 19.44576,25.922745 21.86586,23.877495 L22.20921,23.586795 L18.20826,18.853245 L17.86446,19.143945 Z"/>
    <path fill="#13B0E5" d="M23.43366,5.160555 C21.14271,2.450205 17.93286,0.794205 14.39631,0.498555 C10.85391,0.198405 7.41861,1.300005 4.70871,3.591855 L4.36491,3.882105 L8.36676,8.615655 L9.67311,7.511355 C13.05891,5.855805 16.60176,6.679305 18.70011,9.162405 C19.92231,10.607355 20.50866,12.442455 20.34936,14.365305 C20.34936,14.493105 23.07546,18.927855 23.07546,18.927855 C23.07546,18.927855 26.48961,15.021855 26.51616,14.914755 L26.52786,14.843205 C26.82261,11.308455 25.72371,7.870005 23.43366,5.160555"/>
  </g>
</svg>
