<svg xmlns="http://www.w3.org/2000/svg" width="32" height="39" viewBox="0 0 32 39">
  <g fill="none" fill-rule="evenodd">
    <polygon fill="#4854A4" points="0 8.048 0 0 31.759 0 31.759 8.048 20.665 8.048 20.665 38.065 11.093 38.065 11.093 8.048"/>
    <path fill="#4AC09F" d="M20.6654745,15.5643527 L20.6654745,38.0654547 L11.0932776,38.0654547 L11.0932776,24.3997918 C15.1591548,19.8425266 18.349887,16.8973788 20.6654745,15.5643527 L20.6654745,15.5643527 Z"/>
    <polygon fill="#20ABDF" points="8.109 0 31.759 0 31.759 8.048 20.665 8.048 20.665 9.911 11.093 9.911 11.093 8.048 8.109 8.048"/>
    <path fill="#ED2B31" d="M15.5413289,2.6006858e-15 L0,2.6006858e-15 L0,8.04840357 L11.0932776,8.04840357 L11.0932776,17.7108987 C14.6359936,14.942855 16.8929532,10.7608806 16.8929532,6.08146317 C16.8929532,3.91775225 16.4104073,1.86039641 15.5413289,2.6006858e-15 Z"/>
  </g>
</svg>
